<svg xmlns="http://www.w3.org/2000/svg" width="84" height="84" fill="none"><path fill="#73DFF9" d="m41.813 52.312 4.754-4.754-4.755 4.753 9.51-9.509c4.177 4.178 4.162 10.966 0 15.143l-9.494 9.493c-4.178-4.161-4.177-10.95-.016-15.127M41.842 27.233 29.53 39.543c-4.178 4.178-4.162 10.966 0 15.127l12.31-12.294c4.162-4.193 4.178-10.981 0-15.143"></path><path fill="#73DFF9" fill-rule="evenodd" d="m42.001.337-.003-.004L17.58 24.75C9.755 32.576 6.23 43.876 7.896 54.527c1.109 7.125 4.534 13.875 9.65 19.009l.076.075a34.712 34.712 0 0 0 5.058 4.175c7.575 5.117 17.06 6.975 25.91 5.267a34.093 34.093 0 0 0 9.79-3.532c5.821-3.159 10.726-7.956 13.905-13.743 4.083-7.437 5.254-16.266 3.355-24.446-1.44-6.266-5.053-12.393-9.578-16.934L42.018.32 42 .337m0 15.108-.003-.003-16.893 16.884c-4.083 4.1-6.6 9.717-6.908 15.542-.359 6.6 2.133 13.276 6.833 18.042.021.025.044.048.067.071.023.023.046.046.067.071 4.675 4.65 11.342 7.234 17.984 6.917 4.402-.209 8.712-1.712 12.364-4.22-3.65 2.5-7.955 4-12.357 4.212-6.63.316-13.308-2.28-17.975-6.931-.047-.031-.093-.077-.14-.124l-.003-.003c-4.683-4.763-7.182-11.44-6.834-18.038.316-5.838 2.832-11.455 6.93-15.553l16.868-16.867m0 0L25.134 32.314c-4.097 4.098-6.613 9.714-6.93 15.552-.347 6.598 2.151 13.275 6.835 18.037l.003.003c.046.046.092.093.139.123 4.667 4.652 11.344 7.247 17.974 6.931 4.878-.234 9.636-2.05 13.517-5.057a23.673 23.673 0 0 0 6.018-6.883c3.658-6.376 4.108-14.45 1.258-21.176a23.642 23.642 0 0 0-5.117-7.526l.025-.016-16.855-16.855Z" clip-rule="evenodd"></path></svg>