<?xml version="1.0" encoding="UTF-8" standalone="no"?>
<!DOCTYPE svg PUBLIC "-//W3C//DTD SVG 1.1//EN" "http://www.w3.org/Graphics/SVG/1.1/DTD/svg11.dtd">
<svg width="100%" height="100%" viewBox="0 0 1661 754" version="1.1" xmlns="http://www.w3.org/2000/svg" xmlns:xlink="http://www.w3.org/1999/xlink" xml:space="preserve" xmlns:serif="http://www.serif.com/" style="fill-rule:evenodd;clip-rule:evenodd;stroke-linecap:round;stroke-linejoin:round;stroke-miterlimit:1.5;">
    <g transform="matrix(1,0,0,1,-2435.32,-389.322)">
        <g id="Artboard1" transform="matrix(1.53754,0,0,0.6976,2435.32,389.322)">
            <rect x="0" y="0" width="1080" height="1080" style="fill:none;"/>
            <g transform="matrix(0.489075,0,0,17.4921,10.8069,-1009.33)">
                <rect x="123.03" y="59.325" width="854.067" height="52.673" style="fill:rgb(228,36,206);fill-opacity:0.04;"/>
            </g>
            <g transform="matrix(0.489075,0,0,17.4921,526.09,-1009.33)">
                <rect x="123.03" y="59.325" width="854.067" height="52.673" style="fill:rgb(228,36,206);fill-opacity:0.04;"/>
            </g>
            <g transform="matrix(2.90012e-17,-1.43349,0.453961,8.41315e-17,31.7779,1055.13)">
                <path d="M73.365,47.1L73.365,1004.29" style="fill:none;stroke:rgb(36,17,105);stroke-width:2.32px;"/>
            </g>
            <g transform="matrix(2.90012e-17,-1.43349,0.453961,8.41315e-17,547.061,1055.13)">
                <path d="M73.365,47.1L73.365,1004.29" style="fill:none;stroke:rgb(36,17,105);stroke-width:2.32px;"/>
            </g>
            <g transform="matrix(-0.650388,-1.45211e-16,6.77855e-17,-0.997241,118.315,1030.87)">
                <path d="M73.365,47.1L73.365,1004.29" style="fill:none;stroke:rgb(36,17,105);stroke-width:2.32px;"/>
            </g>
            <g transform="matrix(-0.650388,-1.45211e-16,6.77855e-17,-0.997241,633.598,1030.87)">
                <path d="M73.365,47.1L73.365,1004.29" style="fill:none;stroke:rgb(36,17,105);stroke-width:2.32px;"/>
            </g>
            <g transform="matrix(-0.650388,-1.45211e-16,6.77855e-17,-0.997241,632.623,1033.92)">
                <path d="M-60.333,82.746L-463.236,1007.5" style="fill:none;stroke:rgb(187,29,174);stroke-opacity:0.5;stroke-width:1.16px;stroke-linecap:butt;stroke-dasharray:3.48,3.48,0,0,0,0;"/>
            </g>
            <g transform="matrix(-0.650388,-1.45211e-16,6.77855e-17,-0.997241,118.315,1030.87)">
                <path d="M-570.281,80.65L73.613,1003.98" style="fill:none;stroke:rgb(187,29,174);stroke-opacity:0.5;stroke-width:1.16px;stroke-linecap:butt;stroke-dasharray:3.48,3.48,0,0,0,0;"/>
            </g>
            <g transform="matrix(2.71129,0,0,5.97582,-776.55,-5099.9)">
                <g transform="matrix(5.75714,0,0,5.75714,402.606,1028.62)">
                </g>
                <text x="376.595px" y="1028.62px" style="font-family:'BwQuintaPro-Regular', 'Bw Quinta Pro';font-size:5.757px;fill:rgb(36,17,105);">S<tspan x="379.451px " y="1028.62px ">w</tspan>eetness</text>
            </g>
            <g transform="matrix(2.71129,0,0,5.97582,-265.862,-5099.9)">
                <g transform="matrix(5.75714,0,0,5.75714,405.819,1028.62)">
                </g>
                <text x="376.595px" y="1028.62px" style="font-family:'BwQuintaPro-Regular', 'Bw Quinta Pro';font-size:5.757px;fill:rgb(36,17,105);">F<tspan x="379.249px " y="1028.62px ">a</tspan>t Content</text>
            </g>
            <g transform="matrix(1.66019e-16,5.97582,-2.71129,3.65914e-16,2805.43,-1819.39)">
                <g transform="matrix(5.75714,0,0,5.75714,395.997,1028.62)">
                </g>
                <text x="376.595px" y="1028.62px" style="font-family:'BwQuintaPro-Regular', 'Bw Quinta Pro';font-size:5.757px;fill:rgb(36,17,105);">Heal<tspan x="387.994px " y="1028.62px ">t</tspan>hy</text>
            </g>
            <g transform="matrix(1.66019e-16,5.97582,-2.71129,3.65914e-16,3320.72,-1816.66)">
                <g transform="matrix(5.75714,0,0,5.75714,395.3,1028.62)">
                </g>
                <text x="376.595px" y="1028.62px" style="font-family:'BwQuintaPro-Regular', 'Bw Quinta Pro';font-size:5.757px;fill:rgb(36,17,105);">Creamy</text>
            </g>
            <g transform="matrix(2.71129,0,0,5.97582,-883.667,-5956.45)">
                <g transform="matrix(3.83809,0,0,3.83809,389.207,1028.62)">
                </g>
                <text x="376.595px" y="1028.62px" style="font-family:'BwQuintaPro-Bold', 'Bw Quinta Pro';font-weight:700;font-size:3.838px;fill:rgb(187,30,174);">T<tspan x="378.207px " y="1028.62px ">o</tspan>mato</text>
            </g>
            <g transform="matrix(2.71129,0,0,5.97582,-953.053,-5143.26)">
                <g transform="matrix(3.35833,0,0,3.35833,378.436,1028.62)">
                </g>
                <text x="376.595px" y="1028.62px" style="font-family:'BwQuintaPro-Medium', 'Bw Quinta Pro';font-weight:500;font-size:3.358px;fill:rgb(36,16,105);">0</text>
            </g>
            <g transform="matrix(2.71129,0,0,5.97582,-437.77,-5143.26)">
                <g transform="matrix(3.35833,0,0,3.35833,378.436,1028.62)">
                </g>
                <text x="376.595px" y="1028.62px" style="font-family:'BwQuintaPro-Medium', 'Bw Quinta Pro';font-weight:500;font-size:3.358px;fill:rgb(36,16,105);">0</text>
            </g>
            <g transform="matrix(2.71129,0,0,5.97582,-536.412,-5143.26)">
                <g transform="matrix(3.35833,0,0,3.35833,379.5,1028.62)">
                </g>
                <text x="376.595px" y="1028.62px" style="font-family:'BwQuintaPro-Medium', 'Bw Quinta Pro';font-weight:500;font-size:3.358px;fill:rgb(36,16,105);">10</text>
            </g>
            <g transform="matrix(2.71129,0,0,5.97582,-21.1293,-5143.26)">
                <g transform="matrix(3.35833,0,0,3.35833,379.5,1028.62)">
                </g>
                <text x="376.595px" y="1028.62px" style="font-family:'BwQuintaPro-Medium', 'Bw Quinta Pro';font-weight:500;font-size:3.358px;fill:rgb(36,16,105);">10</text>
            </g>
            <g transform="matrix(2.71129,-6.30042e-32,-2.88523e-32,5.97582,-975.963,-5191.86)">
                <g transform="matrix(3.35833,0,0,3.35833,378.436,1028.62)">
                </g>
                <text x="376.595px" y="1028.62px" style="font-family:'BwQuintaPro-Medium', 'Bw Quinta Pro';font-weight:500;font-size:3.358px;fill:rgb(36,16,105);">0</text>
            </g>
            <g transform="matrix(2.71129,-6.30042e-32,-2.88523e-32,5.97582,-460.68,-5191.86)">
                <g transform="matrix(3.35833,0,0,3.35833,378.436,1028.62)">
                </g>
                <text x="376.595px" y="1028.62px" style="font-family:'BwQuintaPro-Medium', 'Bw Quinta Pro';font-weight:500;font-size:3.358px;fill:rgb(36,16,105);">0</text>
            </g>
            <g transform="matrix(2.71129,0,0,5.97582,-743.463,-5145.06)">
                <g transform="matrix(3.35833,0,0,3.35833,378.285,1028.62)">
                </g>
                <text x="376.595px" y="1028.62px" style="font-family:'BwQuintaPro-Medium', 'Bw Quinta Pro';font-weight:500;font-size:3.358px;fill:rgb(36,16,105);">5</text>
            </g>
            <g transform="matrix(2.71129,0,0,5.97582,-228.18,-5145.06)">
                <g transform="matrix(3.35833,0,0,3.35833,378.285,1028.62)">
                </g>
                <text x="376.595px" y="1028.62px" style="font-family:'BwQuintaPro-Medium', 'Bw Quinta Pro';font-weight:500;font-size:3.358px;fill:rgb(36,16,105);">5</text>
            </g>
            <g transform="matrix(2.71129,-6.30042e-32,-2.88523e-32,5.97582,-975.755,-5653.36)">
                <g transform="matrix(3.35833,0,0,3.35833,378.285,1028.62)">
                </g>
                <text x="376.595px" y="1028.62px" style="font-family:'BwQuintaPro-Medium', 'Bw Quinta Pro';font-weight:500;font-size:3.358px;fill:rgb(36,16,105);">5</text>
            </g>
            <g transform="matrix(2.71129,-6.30042e-32,-2.88523e-32,5.97582,-460.471,-5653.36)">
                <g transform="matrix(3.35833,0,0,3.35833,378.285,1028.62)">
                </g>
                <text x="376.595px" y="1028.62px" style="font-family:'BwQuintaPro-Medium', 'Bw Quinta Pro';font-weight:500;font-size:3.358px;fill:rgb(36,16,105);">5</text>
            </g>
            <g transform="matrix(2.71129,0,0,5.97582,-701.732,-5141.37)">
                <g transform="matrix(3.35833,0,0,3.35833,378.335,1028.62)">
                </g>
                <text x="376.595px" y="1028.62px" style="font-family:'BwQuintaPro-Light', 'Bw Quinta Pro';font-weight:300;font-size:3.358px;fill:rgb(36,17,105);">6</text>
            </g>
            <g transform="matrix(2.71129,0,0,5.97582,-186.449,-5141.37)">
                <g transform="matrix(3.35833,0,0,3.35833,378.335,1028.62)">
                </g>
                <text x="376.595px" y="1028.62px" style="font-family:'BwQuintaPro-Light', 'Bw Quinta Pro';font-weight:300;font-size:3.358px;fill:rgb(36,17,105);">6</text>
            </g>
            <g transform="matrix(2.71129,0,0,5.97582,-659.698,-5145.22)">
                <g transform="matrix(3.35833,0,0,3.35833,378.251,1028.62)">
                </g>
                <text x="376.595px" y="1028.62px" style="font-family:'BwQuintaPro-Light', 'Bw Quinta Pro';font-weight:300;font-size:3.358px;fill:rgb(36,17,105);">7</text>
            </g>
            <g transform="matrix(2.71129,0,0,5.97582,-144.415,-5145.22)">
                <g transform="matrix(3.35833,0,0,3.35833,378.251,1028.62)">
                </g>
                <text x="376.595px" y="1028.62px" style="font-family:'BwQuintaPro-Light', 'Bw Quinta Pro';font-weight:300;font-size:3.358px;fill:rgb(36,17,105);">7</text>
            </g>
            <g transform="matrix(2.71129,0,0,5.97582,-617.929,-5141.52)">
                <g transform="matrix(3.35833,0,0,3.35833,378.382,1028.62)">
                </g>
                <text x="376.595px" y="1028.62px" style="font-family:'BwQuintaPro-Light', 'Bw Quinta Pro';font-weight:300;font-size:3.358px;fill:rgb(36,17,105);">8</text>
            </g>
            <g transform="matrix(2.71129,0,0,5.97582,-102.646,-5141.52)">
                <g transform="matrix(3.35833,0,0,3.35833,378.382,1028.62)">
                </g>
                <text x="376.595px" y="1028.62px" style="font-family:'BwQuintaPro-Light', 'Bw Quinta Pro';font-weight:300;font-size:3.358px;fill:rgb(36,17,105);">8</text>
            </g>
            <g transform="matrix(2.71129,0,0,5.97582,-576.15,-5145.12)">
                <g transform="matrix(3.35833,0,0,3.35833,378.335,1028.62)">
                </g>
                <text x="376.595px" y="1028.62px" style="font-family:'BwQuintaPro-Light', 'Bw Quinta Pro';font-weight:300;font-size:3.358px;fill:rgb(36,17,105);">9</text>
            </g>
            <g transform="matrix(2.71129,0,0,5.97582,-60.8665,-5145.12)">
                <g transform="matrix(3.35833,0,0,3.35833,378.335,1028.62)">
                </g>
                <text x="376.595px" y="1028.62px" style="font-family:'BwQuintaPro-Light', 'Bw Quinta Pro';font-weight:300;font-size:3.358px;fill:rgb(36,17,105);">9</text>
            </g>
            <g transform="matrix(2.71129,-6.30042e-32,-2.88523e-32,5.97582,-974.659,-5283.5)">
                <g transform="matrix(3.35833,0,0,3.35833,377.556,1028.62)">
                </g>
                <text x="376.595px" y="1028.62px" style="font-family:'BwQuintaPro-Light', 'Bw Quinta Pro';font-weight:300;font-size:3.358px;fill:rgb(36,17,105);">1</text>
            </g>
            <g transform="matrix(2.71129,-6.30042e-32,-2.88523e-32,5.97582,-459.376,-5283.5)">
                <g transform="matrix(3.35833,0,0,3.35833,377.556,1028.62)">
                </g>
                <text x="376.595px" y="1028.62px" style="font-family:'BwQuintaPro-Light', 'Bw Quinta Pro';font-weight:300;font-size:3.358px;fill:rgb(36,17,105);">1</text>
            </g>
            <g transform="matrix(2.71129,-6.30042e-32,-2.88523e-32,5.97582,-976.814,-5374.66)">
                <g transform="matrix(3.35833,0,0,3.35833,378.07,1028.62)">
                </g>
                <text x="376.595px" y="1028.62px" style="font-family:'BwQuintaPro-Light', 'Bw Quinta Pro';font-weight:300;font-size:3.358px;fill:rgb(36,17,105);">2</text>
            </g>
            <g transform="matrix(2.71129,-6.30042e-32,-2.88523e-32,5.97582,-461.531,-5374.66)">
                <g transform="matrix(3.35833,0,0,3.35833,378.07,1028.62)">
                </g>
                <text x="376.595px" y="1028.62px" style="font-family:'BwQuintaPro-Light', 'Bw Quinta Pro';font-weight:300;font-size:3.358px;fill:rgb(36,17,105);">2</text>
            </g>
            <g transform="matrix(2.71129,-6.30042e-32,-2.88523e-32,5.97582,-976.814,-5467.74)">
                <g transform="matrix(3.35833,0,0,3.35833,378.187,1028.62)">
                </g>
                <text x="376.595px" y="1028.62px" style="font-family:'BwQuintaPro-Light', 'Bw Quinta Pro';font-weight:300;font-size:3.358px;fill:rgb(36,17,105);">3</text>
            </g>
            <g transform="matrix(2.71129,-6.30042e-32,-2.88523e-32,5.97582,-461.531,-5467.74)">
                <g transform="matrix(3.35833,0,0,3.35833,378.187,1028.62)">
                </g>
                <text x="376.595px" y="1028.62px" style="font-family:'BwQuintaPro-Light', 'Bw Quinta Pro';font-weight:300;font-size:3.358px;fill:rgb(36,17,105);">3</text>
            </g>
            <g transform="matrix(2.71129,-6.30042e-32,-2.88523e-32,5.97582,-976.814,-5560.43)">
                <g transform="matrix(3.35833,0,0,3.35833,378.405,1028.62)">
                </g>
                <text x="376.595px" y="1028.62px" style="font-family:'BwQuintaPro-Light', 'Bw Quinta Pro';font-weight:300;font-size:3.358px;fill:rgb(36,17,105);">4</text>
            </g>
            <g transform="matrix(2.71129,-6.30042e-32,-2.88523e-32,5.97582,-461.531,-5560.43)">
                <g transform="matrix(3.35833,0,0,3.35833,378.405,1028.62)">
                </g>
                <text x="376.595px" y="1028.62px" style="font-family:'BwQuintaPro-Light', 'Bw Quinta Pro';font-weight:300;font-size:3.358px;fill:rgb(36,17,105);">4</text>
            </g>
            <g transform="matrix(2.71129,-6.30042e-32,-2.88523e-32,5.97582,-976.814,-5742.62)">
                <g transform="matrix(3.35833,0,0,3.35833,378.335,1028.62)">
                </g>
                <text x="376.595px" y="1028.62px" style="font-family:'BwQuintaPro-Light', 'Bw Quinta Pro';font-weight:300;font-size:3.358px;fill:rgb(36,17,105);">6</text>
            </g>
            <g transform="matrix(2.71129,-6.30042e-32,-2.88523e-32,5.97582,-461.531,-5742.62)">
                <g transform="matrix(3.35833,0,0,3.35833,378.335,1028.62)">
                </g>
                <text x="376.595px" y="1028.62px" style="font-family:'BwQuintaPro-Light', 'Bw Quinta Pro';font-weight:300;font-size:3.358px;fill:rgb(36,17,105);">6</text>
            </g>
            <g transform="matrix(2.71129,-6.30042e-32,-2.88523e-32,5.97582,-976.814,-5837.28)">
                <g transform="matrix(3.35833,0,0,3.35833,378.251,1028.62)">
                </g>
                <text x="376.595px" y="1028.62px" style="font-family:'BwQuintaPro-Light', 'Bw Quinta Pro';font-weight:300;font-size:3.358px;fill:rgb(36,17,105);">7</text>
            </g>
            <g transform="matrix(2.71129,-6.30042e-32,-2.88523e-32,5.97582,-461.531,-5837.28)">
                <g transform="matrix(3.35833,0,0,3.35833,378.251,1028.62)">
                </g>
                <text x="376.595px" y="1028.62px" style="font-family:'BwQuintaPro-Light', 'Bw Quinta Pro';font-weight:300;font-size:3.358px;fill:rgb(36,17,105);">7</text>
            </g>
            <g transform="matrix(2.71129,-6.30042e-32,-2.88523e-32,5.97582,-976.814,-5927.91)">
                <g transform="matrix(3.35833,0,0,3.35833,378.382,1028.62)">
                </g>
                <text x="376.595px" y="1028.62px" style="font-family:'BwQuintaPro-Light', 'Bw Quinta Pro';font-weight:300;font-size:3.358px;fill:rgb(36,17,105);">8</text>
            </g>
            <g transform="matrix(2.71129,-6.30042e-32,-2.88523e-32,5.97582,-461.531,-5927.91)">
                <g transform="matrix(3.35833,0,0,3.35833,378.382,1028.62)">
                </g>
                <text x="376.595px" y="1028.62px" style="font-family:'BwQuintaPro-Light', 'Bw Quinta Pro';font-weight:300;font-size:3.358px;fill:rgb(36,17,105);">8</text>
            </g>
            <g transform="matrix(2.71129,-6.30042e-32,-2.88523e-32,5.97582,-976.814,-6018.63)">
                <g transform="matrix(3.35833,0,0,3.35833,378.335,1028.62)">
                </g>
                <text x="376.595px" y="1028.62px" style="font-family:'BwQuintaPro-Light', 'Bw Quinta Pro';font-weight:300;font-size:3.358px;fill:rgb(36,17,105);">9</text>
            </g>
            <g transform="matrix(2.71129,-6.30042e-32,-2.88523e-32,5.97582,-461.531,-6018.63)">
                <g transform="matrix(3.35833,0,0,3.35833,378.335,1028.62)">
                </g>
                <text x="376.595px" y="1028.62px" style="font-family:'BwQuintaPro-Light', 'Bw Quinta Pro';font-weight:300;font-size:3.358px;fill:rgb(36,17,105);">9</text>
            </g>
            <g transform="matrix(2.71129,0,0,5.97582,-785.588,-5144.66)">
                <g transform="matrix(3.35833,0,0,3.35833,378.405,1028.62)">
                </g>
                <text x="376.595px" y="1028.62px" style="font-family:'BwQuintaPro-Light', 'Bw Quinta Pro';font-weight:300;font-size:3.358px;fill:rgb(36,17,105);">4</text>
            </g>
            <g transform="matrix(2.71129,0,0,5.97582,-270.305,-5144.66)">
                <g transform="matrix(3.35833,0,0,3.35833,378.405,1028.62)">
                </g>
                <text x="376.595px" y="1028.62px" style="font-family:'BwQuintaPro-Light', 'Bw Quinta Pro';font-weight:300;font-size:3.358px;fill:rgb(36,17,105);">4</text>
            </g>
            <g transform="matrix(2.71129,0,0,5.97582,-868.852,-5143.16)">
                <g transform="matrix(3.35833,0,0,3.35833,378.07,1028.62)">
                </g>
                <text x="376.595px" y="1028.62px" style="font-family:'BwQuintaPro-Light', 'Bw Quinta Pro';font-weight:300;font-size:3.358px;fill:rgb(36,17,105);">2</text>
            </g>
            <g transform="matrix(2.71129,0,0,5.97582,-353.569,-5143.16)">
                <g transform="matrix(3.35833,0,0,3.35833,378.07,1028.62)">
                </g>
                <text x="376.595px" y="1028.62px" style="font-family:'BwQuintaPro-Light', 'Bw Quinta Pro';font-weight:300;font-size:3.358px;fill:rgb(36,17,105);">2</text>
            </g>
            <g transform="matrix(2.71129,0,0,5.97582,-909.777,-5143.21)">
                <g transform="matrix(3.35833,0,0,3.35833,377.556,1028.62)">
                </g>
                <text x="376.595px" y="1028.62px" style="font-family:'BwQuintaPro-Light', 'Bw Quinta Pro';font-weight:300;font-size:3.358px;fill:rgb(36,17,105);">1</text>
            </g>
            <g transform="matrix(2.71129,0,0,5.97582,-394.494,-5143.21)">
                <g transform="matrix(3.35833,0,0,3.35833,377.556,1028.62)">
                </g>
                <text x="376.595px" y="1028.62px" style="font-family:'BwQuintaPro-Light', 'Bw Quinta Pro';font-weight:300;font-size:3.358px;fill:rgb(36,17,105);">1</text>
            </g>
            <g transform="matrix(2.71129,0,0,5.97582,-827.108,-5144.96)">
                <g transform="matrix(3.35833,0,0,3.35833,378.187,1028.62)">
                </g>
                <text x="376.595px" y="1028.62px" style="font-family:'BwQuintaPro-Light', 'Bw Quinta Pro';font-weight:300;font-size:3.358px;fill:rgb(36,17,105);">3</text>
            </g>
            <g transform="matrix(2.71129,0,0,5.97582,-311.825,-5144.96)">
                <g transform="matrix(3.35833,0,0,3.35833,378.187,1028.62)">
                </g>
                <text x="376.595px" y="1028.62px" style="font-family:'BwQuintaPro-Light', 'Bw Quinta Pro';font-weight:300;font-size:3.358px;fill:rgb(36,17,105);">3</text>
            </g>
            <g transform="matrix(2.71129,0,0,5.97582,-754.582,-5683.56)">
                <g transform="matrix(3.83809,0,0,3.83809,386.632,1028.62)">
                </g>
                <text x="376.595px" y="1028.62px" style="font-family:'BwQuintaPro-Bold', 'Bw Quinta Pro';font-weight:700;font-size:3.838px;fill:rgb(187,30,174);">Apple</text>
            </g>
            <g transform="matrix(2.71129,0,0,5.97582,-277.713,-5506.25)">
                <g transform="matrix(3.83809,0,0,3.83809,383.988,1028.62)">
                </g>
                <text x="376.595px" y="1028.62px" style="font-family:'BwQuintaPro-Bold', 'Bw Quinta Pro';font-weight:700;font-size:3.838px;fill:rgb(187,30,174);">Milk</text>
            </g>
            <g transform="matrix(2.71129,0,0,5.97582,-198.208,-5802.31)">
                <g transform="matrix(3.83809,0,0,3.83809,387.066,1028.62)">
                </g>
                <text x="376.595px" y="1028.62px" style="font-family:'BwQuintaPro-Bold', 'Bw Quinta Pro';font-weight:700;font-size:3.838px;fill:rgb(187,30,174);">Butter</text>
            </g>
            <g transform="matrix(2.71129,0,0,5.97582,-135.959,-6048.37)">
                <g transform="matrix(3.83809,0,0,3.83809,393.306,1028.62)">
                </g>
                <text x="376.595px" y="1028.62px" style="font-family:'BwQuintaPro-Bold', 'Bw Quinta Pro';font-weight:700;font-size:3.838px;fill:rgb(187,30,174);">Ice Cream</text>
            </g>
            <g transform="matrix(-1.19474e-16,1.43349,-0.0358073,-1.44976e-17,89.6372,-76.2713)">
                <path d="M73.365,47.1L73.365,1004.29" style="fill:none;stroke:rgb(36,17,105);stroke-width:1.41px;"/>
            </g>
            <g transform="matrix(-1.19474e-16,1.43349,-0.0358073,-1.44976e-17,604.92,-76.2713)">
                <path d="M73.365,47.1L73.365,1004.29" style="fill:none;stroke:rgb(36,17,105);stroke-width:1.41px;"/>
            </g>
            <g transform="matrix(0.650388,0,0,0.0238703,64.7432,947.873)">
                <path d="M73.365,47.1L73.365,1004.29" style="fill:none;stroke:rgb(36,17,105);stroke-width:0.42px;"/>
            </g>
            <g transform="matrix(0.650388,0,0,0.0238703,580.026,947.873)">
                <path d="M73.365,47.1L73.365,1004.29" style="fill:none;stroke:rgb(36,17,105);stroke-width:0.42px;"/>
            </g>
            <g transform="matrix(0.650388,0,0,0.0238703,106.603,947.873)">
                <path d="M73.365,47.1L73.365,1004.29" style="fill:none;stroke:rgb(36,17,105);stroke-width:0.42px;"/>
            </g>
            <g transform="matrix(0.650388,0,0,0.0238703,621.886,947.873)">
                <path d="M73.365,47.1L73.365,1004.29" style="fill:none;stroke:rgb(36,17,105);stroke-width:0.42px;"/>
            </g>
            <g transform="matrix(0.650388,0,0,0.0238703,148.462,947.873)">
                <path d="M73.365,47.1L73.365,1004.29" style="fill:none;stroke:rgb(36,17,105);stroke-width:0.42px;"/>
            </g>
            <g transform="matrix(0.650388,0,0,0.0238703,663.745,947.873)">
                <path d="M73.365,47.1L73.365,1004.29" style="fill:none;stroke:rgb(36,17,105);stroke-width:0.42px;"/>
            </g>
            <g transform="matrix(0.650388,0,0,0.0238703,315.9,951.117)">
                <path d="M73.365,47.1L73.365,1004.29" style="fill:none;stroke:rgb(36,17,105);stroke-width:0.42px;"/>
            </g>
            <g transform="matrix(0.650388,0,0,0.0238703,831.183,951.117)">
                <path d="M73.365,47.1L73.365,1004.29" style="fill:none;stroke:rgb(36,17,105);stroke-width:0.42px;"/>
            </g>
            <g transform="matrix(3.98248e-17,1.43349,-0.0108302,1.46164e-18,69.1302,569.692)">
                <path d="M73.365,47.1L73.365,1004.29" style="fill:none;stroke:rgb(36,17,105);stroke-width:0.42px;"/>
            </g>
            <g transform="matrix(3.98248e-17,1.43349,-0.0108302,1.46164e-18,584.413,569.692)">
                <path d="M73.365,47.1L73.365,1004.29" style="fill:none;stroke:rgb(36,17,105);stroke-width:0.42px;"/>
            </g>
            <g transform="matrix(0.897334,0,0,0.0312435,214.064,947.28)">
                <path d="M73.365,47.1L73.365,1004.29" style="fill:none;stroke:rgb(36,17,105);stroke-width:1.02px;"/>
            </g>
            <g transform="matrix(0.897334,0,0,0.0312435,729.347,947.28)">
                <path d="M73.365,47.1L73.365,1004.29" style="fill:none;stroke:rgb(36,17,105);stroke-width:1.02px;"/>
            </g>
            <g transform="matrix(5.49459e-17,1.97777,-0.0141755,1.91311e-18,70.8714,345.24)">
                <path d="M73.365,47.1L73.365,1004.29" style="fill:none;stroke:rgb(36,17,105);stroke-width:1.02px;"/>
            </g>
            <g transform="matrix(5.49459e-17,1.97777,-0.0141755,1.91311e-18,586.154,345.24)">
                <path d="M73.365,47.1L73.365,1004.29" style="fill:none;stroke:rgb(36,17,105);stroke-width:1.02px;"/>
            </g>
            <g transform="matrix(0.650388,0,0,0.0238703,190.321,947.873)">
                <path d="M73.365,47.1L73.365,1004.29" style="fill:none;stroke:rgb(36,17,105);stroke-width:0.42px;"/>
            </g>
            <g transform="matrix(0.650388,0,0,0.0238703,705.605,947.873)">
                <path d="M73.365,47.1L73.365,1004.29" style="fill:none;stroke:rgb(36,17,105);stroke-width:0.42px;"/>
            </g>
            <g transform="matrix(3.98248e-17,1.43349,-0.0108302,1.46164e-18,70.602,292.911)">
                <path d="M73.365,47.1L73.365,1004.29" style="fill:none;stroke:rgb(36,17,105);stroke-width:0.42px;"/>
            </g>
            <g transform="matrix(3.98248e-17,1.43349,-0.0108302,1.46164e-18,585.885,292.911)">
                <path d="M73.365,47.1L73.365,1004.29" style="fill:none;stroke:rgb(36,17,105);stroke-width:0.42px;"/>
            </g>
            <g transform="matrix(0.650388,0,0,0.0238703,274.04,947.873)">
                <path d="M73.365,47.1L73.365,1004.29" style="fill:none;stroke:rgb(36,17,105);stroke-width:0.42px;"/>
            </g>
            <g transform="matrix(0.650388,0,0,0.0238703,789.323,947.873)">
                <path d="M73.365,47.1L73.365,1004.29" style="fill:none;stroke:rgb(36,17,105);stroke-width:0.42px;"/>
            </g>
            <g transform="matrix(3.98248e-17,1.43349,-0.0108302,1.46164e-18,70.602,477.432)">
                <path d="M73.365,47.1L73.365,1004.29" style="fill:none;stroke:rgb(36,17,105);stroke-width:0.42px;"/>
            </g>
            <g transform="matrix(3.98248e-17,1.43349,-0.0108302,1.46164e-18,585.885,477.432)">
                <path d="M73.365,47.1L73.365,1004.29" style="fill:none;stroke:rgb(36,17,105);stroke-width:0.42px;"/>
            </g>
            <g transform="matrix(0.650388,0,0,0.0238703,357.759,947.873)">
                <path d="M73.365,47.1L73.365,1004.29" style="fill:none;stroke:rgb(36,17,105);stroke-width:0.42px;"/>
            </g>
            <g transform="matrix(0.650388,0,0,0.0238703,873.042,947.873)">
                <path d="M73.365,47.1L73.365,1004.29" style="fill:none;stroke:rgb(36,17,105);stroke-width:0.42px;"/>
            </g>
            <g transform="matrix(3.98248e-17,1.43349,-0.0108302,1.46164e-18,70.602,661.952)">
                <path d="M73.365,47.1L73.365,1004.29" style="fill:none;stroke:rgb(36,17,105);stroke-width:0.42px;"/>
            </g>
            <g transform="matrix(3.98248e-17,1.43349,-0.0108302,1.46164e-18,585.885,661.952)">
                <path d="M73.365,47.1L73.365,1004.29" style="fill:none;stroke:rgb(36,17,105);stroke-width:0.42px;"/>
            </g>
            <g transform="matrix(0.650388,0,0,0.0238703,399.618,947.873)">
                <path d="M73.365,47.1L73.365,1004.29" style="fill:none;stroke:rgb(36,17,105);stroke-width:0.42px;"/>
            </g>
            <g transform="matrix(0.650388,0,0,0.0238703,914.902,947.873)">
                <path d="M73.365,47.1L73.365,1004.29" style="fill:none;stroke:rgb(36,17,105);stroke-width:0.42px;"/>
            </g>
            <g transform="matrix(3.98248e-17,1.43349,-0.0108302,1.46164e-18,70.602,753.752)">
                <path d="M73.365,47.1L73.365,1004.29" style="fill:none;stroke:rgb(36,17,105);stroke-width:0.42px;"/>
            </g>
            <g transform="matrix(3.98248e-17,1.43349,-0.0108302,1.46164e-18,585.885,753.752)">
                <path d="M73.365,47.1L73.365,1004.29" style="fill:none;stroke:rgb(36,17,105);stroke-width:0.42px;"/>
            </g>
            <g transform="matrix(-0.650388,-1.75551e-16,4.38513e-18,-0.078921,536.259,991.482)">
                <path d="M73.365,47.1L73.365,1004.29" style="fill:none;stroke:rgb(36,17,105);stroke-width:1.41px;"/>
            </g>
            <g transform="matrix(-0.650388,-1.75551e-16,4.38513e-18,-0.078921,1051.54,991.482)">
                <path d="M73.365,47.1L73.365,1004.29" style="fill:none;stroke:rgb(36,17,105);stroke-width:1.41px;"/>
            </g>
            <g transform="matrix(2.71129,0,0,5.97582,-602.088,-5317.69)">
                <g transform="matrix(3.83809,0,0,3.83809,396.872,1028.62)">
                </g>
                <text x="376.595px" y="1028.62px" style="font-family:'BwQuintaPro-Bold', 'Bw Quinta Pro';font-weight:700;font-size:3.838px;fill:rgb(187,30,174);">Candy Floss</text>
            </g>
            <g transform="matrix(0.483135,0,0,1.06485,2.30273,-587.804)">
                <circle cx="314.325" cy="751.24" r="10.395" style="fill:rgb(252,233,247);stroke:rgb(228,36,206);stroke-width:2.02px;"/>
            </g>
            <g transform="matrix(0.483135,0,0,1.06485,601.797,-135.756)">
                <circle cx="314.325" cy="751.24" r="10.395" style="fill:rgb(252,233,247);stroke:rgb(228,36,206);stroke-width:2.02px;"/>
            </g>
            <g transform="matrix(0.483135,0,0,1.06485,685.524,-431.814)">
                <circle cx="314.325" cy="751.24" r="10.395" style="fill:rgb(252,233,247);stroke:rgb(228,36,206);stroke-width:2.02px;"/>
            </g>
            <g transform="matrix(0.483135,0,0,1.06485,755.972,-677.878)">
                <circle cx="314.325" cy="751.24" r="10.395" style="fill:rgb(252,233,247);stroke:rgb(228,36,206);stroke-width:2.02px;"/>
            </g>
            <g transform="matrix(0.483135,0,0,1.06485,128.158,-310.306)">
                <circle cx="314.325" cy="751.24" r="10.395" style="fill:rgb(252,233,247);stroke:rgb(228,36,206);stroke-width:2.02px;"/>
            </g>
            <g transform="matrix(0.483135,0,0,1.06485,294.901,54.4463)">
                <circle cx="314.325" cy="751.24" r="10.395" style="fill:rgb(252,233,247);stroke:rgb(228,36,206);stroke-width:2.02px;"/>
            </g>
            <g transform="matrix(2.71129,0,-2.88523e-32,5.97582,-977.405,-6113.18)">
                <g transform="matrix(3.35833,0,0,3.35833,379.5,1028.62)">
                </g>
                <text x="376.595px" y="1028.62px" style="font-family:'BwQuintaPro-Medium', 'Bw Quinta Pro';font-weight:500;font-size:3.358px;fill:rgb(36,16,105);">10</text>
            </g>
            <g transform="matrix(2.71129,0,-2.88523e-32,5.97582,-462.121,-6113.18)">
                <g transform="matrix(3.35833,0,0,3.35833,379.5,1028.62)">
                </g>
                <text x="376.595px" y="1028.62px" style="font-family:'BwQuintaPro-Medium', 'Bw Quinta Pro';font-weight:500;font-size:3.358px;fill:rgb(36,16,105);">10</text>
            </g>
            <g transform="matrix(3.98248e-17,1.43349,-0.0108302,1.46164e-18,70.602,16.1307)">
                <path d="M73.365,47.1L73.365,1004.29" style="fill:none;stroke:rgb(36,17,105);stroke-width:0.42px;"/>
            </g>
            <g transform="matrix(3.98248e-17,1.43349,-0.0108302,1.46164e-18,585.885,16.1307)">
                <path d="M73.365,47.1L73.365,1004.29" style="fill:none;stroke:rgb(36,17,105);stroke-width:0.42px;"/>
            </g>
            <g transform="matrix(3.98248e-17,1.43349,-0.0108302,1.46164e-18,70.602,108.391)">
                <path d="M73.365,47.1L73.365,1004.29" style="fill:none;stroke:rgb(36,17,105);stroke-width:0.42px;"/>
            </g>
            <g transform="matrix(3.98248e-17,1.43349,-0.0108302,1.46164e-18,585.885,108.391)">
                <path d="M73.365,47.1L73.365,1004.29" style="fill:none;stroke:rgb(36,17,105);stroke-width:0.42px;"/>
            </g>
            <g transform="matrix(3.98248e-17,1.43349,-0.0108302,1.46164e-18,70.602,200.651)">
                <path d="M73.365,47.1L73.365,1004.29" style="fill:none;stroke:rgb(36,17,105);stroke-width:0.42px;"/>
            </g>
            <g transform="matrix(3.98248e-17,1.43349,-0.0108302,1.46164e-18,585.885,200.651)">
                <path d="M73.365,47.1L73.365,1004.29" style="fill:none;stroke:rgb(36,17,105);stroke-width:0.42px;"/>
            </g>
        </g>
    </g>
</svg>
