<?xml version="1.0" encoding="UTF-8" standalone="no"?>
<!DOCTYPE svg PUBLIC "-//W3C//DTD SVG 1.1//EN" "http://www.w3.org/Graphics/SVG/1.1/DTD/svg11.dtd">
<svg width="100%" height="100%" viewBox="0 0 1207 732" version="1.1" xmlns="http://www.w3.org/2000/svg" xmlns:xlink="http://www.w3.org/1999/xlink" xml:space="preserve" xmlns:serif="http://www.serif.com/" style="fill-rule:evenodd;clip-rule:evenodd;stroke-linecap:round;stroke-linejoin:round;stroke-miterlimit:1.5;">
    <g transform="matrix(1,0,0,1,-1.13542,-2680.18)">
        <g id="Artboard1" transform="matrix(1.11686,0,0,0.677321,1.13542,2680.18)">
            <rect x="0" y="0" width="1080" height="1080" style="fill:none;"/>
            <g transform="matrix(0.674208,0,0,18.019,-0.85647,-1050.02)">
                <rect x="123.03" y="59.325" width="854.067" height="52.673" style="fill:rgb(228,36,206);fill-opacity:0.04;"/>
            </g>
            <g transform="matrix(3.9925e-17,-1.4764,0.624955,8.66503e-17,28.126,1076.45)">
                <path d="M73.365,47.1L73.365,1004.29" style="fill:none;stroke:rgb(36,17,105);stroke-width:2.32px;"/>
            </g>
            <g transform="matrix(-0.895369,-1.49558e-16,9.33183e-17,-1.0271,147.259,1051.46)">
                <path d="M73.365,47.1L73.365,1004.29" style="fill:none;stroke:rgb(36,17,105);stroke-width:2.32px;"/>
            </g>
            <g transform="matrix(3.73256,0,0,6.15474,-1084.67,-5262.86)">
                <g transform="matrix(5.75714,0,0,5.75714,402.606,1028.62)">
                </g>
                <text x="376.595px" y="1028.62px" style="font-family:'BwQuintaPro-Regular', 'Bw Quinta Pro';font-size:5.757px;fill:rgb(36,17,105);">S<tspan x="379.451px " y="1028.62px ">w</tspan>eetness</text>
            </g>
            <g transform="matrix(2.28553e-16,6.15474,-3.73256,3.76869e-16,3846.53,-1873.17)">
                <g transform="matrix(5.75714,0,0,5.75714,392.715,1028.62)">
                </g>
                <text x="376.595px" y="1028.62px" style="font-family:'BwQuintaPro-Regular', 'Bw Quinta Pro';font-size:5.757px;fill:rgb(36,17,105);">Month</text>
            </g>
            <g transform="matrix(3.73256,0,0,6.15474,-1232.14,-5858.35)">
                <g transform="matrix(3.83809,0,0,3.83809,389.207,1028.62)">
                </g>
                <text x="376.595px" y="1028.62px" style="font-family:'BwQuintaPro-Bold', 'Bw Quinta Pro';font-weight:700;font-size:3.838px;fill:rgb(187,30,174);">T<tspan x="378.207px " y="1028.62px ">o</tspan>mato</text>
            </g>
            <g transform="matrix(3.73256,0,0,6.15474,-1327.66,-5307.51)">
                <g transform="matrix(3.35833,0,0,3.35833,378.436,1028.62)">
                </g>
                <text x="376.595px" y="1028.62px" style="font-family:'BwQuintaPro-Medium', 'Bw Quinta Pro';font-weight:500;font-size:3.358px;fill:rgb(36,16,105);">0</text>
            </g>
            <g transform="matrix(3.73256,0,0,6.15474,-753.189,-5307.51)">
                <g transform="matrix(3.35833,0,0,3.35833,379.5,1028.62)">
                </g>
                <text x="376.595px" y="1028.62px" style="font-family:'BwQuintaPro-Medium', 'Bw Quinta Pro';font-weight:500;font-size:3.358px;fill:rgb(36,16,105);">10</text>
            </g>
            <g transform="matrix(3.73256,-6.48905e-32,-3.97201e-32,6.15474,-1359.2,-5357.57)">
                <g transform="matrix(3.35833,0,0,3.35833,378.436,1028.62)">
                </g>
                <text x="376.595px" y="1028.62px" style="font-family:'BwQuintaPro-Medium', 'Bw Quinta Pro';font-weight:500;font-size:3.358px;fill:rgb(36,16,105);">0</text>
            </g>
            <g transform="matrix(3.73256,0,0,6.15474,-1039.12,-5309.37)">
                <g transform="matrix(3.35833,0,0,3.35833,378.285,1028.62)">
                </g>
                <text x="376.595px" y="1028.62px" style="font-family:'BwQuintaPro-Medium', 'Bw Quinta Pro';font-weight:500;font-size:3.358px;fill:rgb(36,16,105);">5</text>
            </g>
            <g transform="matrix(3.73256,-6.48905e-32,-3.97201e-32,6.15474,-1358.91,-5832.89)">
                <g transform="matrix(3.35833,0,0,3.35833,378.285,1028.62)">
                </g>
                <text x="376.595px" y="1028.62px" style="font-family:'BwQuintaPro-Medium', 'Bw Quinta Pro';font-weight:500;font-size:3.358px;fill:rgb(36,16,105);">5</text>
            </g>
            <g transform="matrix(3.73256,0,0,6.15474,-981.675,-5305.57)">
                <g transform="matrix(3.35833,0,0,3.35833,378.335,1028.62)">
                </g>
                <text x="376.595px" y="1028.62px" style="font-family:'BwQuintaPro-Light', 'Bw Quinta Pro';font-weight:300;font-size:3.358px;fill:rgb(36,17,105);">6</text>
            </g>
            <g transform="matrix(3.73256,0,0,6.15474,-923.808,-5309.53)">
                <g transform="matrix(3.35833,0,0,3.35833,378.251,1028.62)">
                </g>
                <text x="376.595px" y="1028.62px" style="font-family:'BwQuintaPro-Light', 'Bw Quinta Pro';font-weight:300;font-size:3.358px;fill:rgb(36,17,105);">7</text>
            </g>
            <g transform="matrix(3.73256,0,0,6.15474,-866.306,-5305.73)">
                <g transform="matrix(3.35833,0,0,3.35833,378.382,1028.62)">
                </g>
                <text x="376.595px" y="1028.62px" style="font-family:'BwQuintaPro-Light', 'Bw Quinta Pro';font-weight:300;font-size:3.358px;fill:rgb(36,17,105);">8</text>
            </g>
            <g transform="matrix(3.73256,0,0,6.15474,-808.79,-5309.43)">
                <g transform="matrix(3.35833,0,0,3.35833,378.335,1028.62)">
                </g>
                <text x="376.595px" y="1028.62px" style="font-family:'BwQuintaPro-Light', 'Bw Quinta Pro';font-weight:300;font-size:3.358px;fill:rgb(36,17,105);">9</text>
            </g>
            <g transform="matrix(3.73256,-6.48905e-32,-3.97201e-32,6.15474,-1357.41,-5451.95)">
                <g transform="matrix(3.35833,0,0,3.35833,377.556,1028.62)">
                </g>
                <text x="376.595px" y="1028.62px" style="font-family:'BwQuintaPro-Light', 'Bw Quinta Pro';font-weight:300;font-size:3.358px;fill:rgb(36,17,105);">1</text>
            </g>
            <g transform="matrix(3.73256,-6.48905e-32,-3.97201e-32,6.15474,-1360.37,-5545.84)">
                <g transform="matrix(3.35833,0,0,3.35833,378.07,1028.62)">
                </g>
                <text x="376.595px" y="1028.62px" style="font-family:'BwQuintaPro-Light', 'Bw Quinta Pro';font-weight:300;font-size:3.358px;fill:rgb(36,17,105);">2</text>
            </g>
            <g transform="matrix(3.73256,-6.48905e-32,-3.97201e-32,6.15474,-1360.37,-5641.72)">
                <g transform="matrix(3.35833,0,0,3.35833,378.187,1028.62)">
                </g>
                <text x="376.595px" y="1028.62px" style="font-family:'BwQuintaPro-Light', 'Bw Quinta Pro';font-weight:300;font-size:3.358px;fill:rgb(36,17,105);">3</text>
            </g>
            <g transform="matrix(3.73256,-6.48905e-32,-3.97201e-32,6.15474,-1360.37,-5737.18)">
                <g transform="matrix(3.35833,0,0,3.35833,378.405,1028.62)">
                </g>
                <text x="376.595px" y="1028.62px" style="font-family:'BwQuintaPro-Light', 'Bw Quinta Pro';font-weight:300;font-size:3.358px;fill:rgb(36,17,105);">4</text>
            </g>
            <g transform="matrix(3.73256,-6.48905e-32,-3.97201e-32,6.15474,-1360.37,-5924.82)">
                <g transform="matrix(3.35833,0,0,3.35833,378.335,1028.62)">
                </g>
                <text x="376.595px" y="1028.62px" style="font-family:'BwQuintaPro-Light', 'Bw Quinta Pro';font-weight:300;font-size:3.358px;fill:rgb(36,17,105);">6</text>
            </g>
            <g transform="matrix(3.73256,-6.48905e-32,-3.97201e-32,6.15474,-1360.37,-6022.31)">
                <g transform="matrix(3.35833,0,0,3.35833,378.251,1028.62)">
                </g>
                <text x="376.595px" y="1028.62px" style="font-family:'BwQuintaPro-Light', 'Bw Quinta Pro';font-weight:300;font-size:3.358px;fill:rgb(36,17,105);">7</text>
            </g>
            <g transform="matrix(3.73256,-6.48905e-32,-3.97201e-32,6.15474,-1360.37,-6115.66)">
                <g transform="matrix(3.35833,0,0,3.35833,378.382,1028.62)">
                </g>
                <text x="376.595px" y="1028.62px" style="font-family:'BwQuintaPro-Light', 'Bw Quinta Pro';font-weight:300;font-size:3.358px;fill:rgb(36,17,105);">8</text>
            </g>
            <g transform="matrix(3.73256,-6.48905e-32,-3.97201e-32,6.15474,-1360.37,-6209.1)">
                <g transform="matrix(3.35833,0,0,3.35833,378.335,1028.62)">
                </g>
                <text x="376.595px" y="1028.62px" style="font-family:'BwQuintaPro-Light', 'Bw Quinta Pro';font-weight:300;font-size:3.358px;fill:rgb(36,17,105);">9</text>
            </g>
            <g transform="matrix(3.73256,0,0,6.15474,-1097.12,-5308.96)">
                <g transform="matrix(3.35833,0,0,3.35833,378.405,1028.62)">
                </g>
                <text x="376.595px" y="1028.62px" style="font-family:'BwQuintaPro-Light', 'Bw Quinta Pro';font-weight:300;font-size:3.358px;fill:rgb(36,17,105);">4</text>
            </g>
            <g transform="matrix(3.73256,0,0,6.15474,-1211.74,-5307.41)">
                <g transform="matrix(3.35833,0,0,3.35833,378.07,1028.62)">
                </g>
                <text x="376.595px" y="1028.62px" style="font-family:'BwQuintaPro-Light', 'Bw Quinta Pro';font-weight:300;font-size:3.358px;fill:rgb(36,17,105);">2</text>
            </g>
            <g transform="matrix(3.73256,0,0,6.15474,-1268.09,-5307.46)">
                <g transform="matrix(3.35833,0,0,3.35833,377.556,1028.62)">
                </g>
                <text x="376.595px" y="1028.62px" style="font-family:'BwQuintaPro-Light', 'Bw Quinta Pro';font-weight:300;font-size:3.358px;fill:rgb(36,17,105);">1</text>
            </g>
            <g transform="matrix(3.73256,0,0,6.15474,-1154.28,-5309.27)">
                <g transform="matrix(3.35833,0,0,3.35833,378.187,1028.62)">
                </g>
                <text x="376.595px" y="1028.62px" style="font-family:'BwQuintaPro-Light', 'Bw Quinta Pro';font-weight:300;font-size:3.358px;fill:rgb(36,17,105);">3</text>
            </g>
            <g transform="matrix(3.73256,0,0,6.15474,-1054.43,-5581.95)">
                <g transform="matrix(3.83809,0,0,3.83809,386.632,1028.62)">
                </g>
                <text x="376.595px" y="1028.62px" style="font-family:'BwQuintaPro-Bold', 'Bw Quinta Pro';font-weight:700;font-size:3.838px;fill:rgb(187,30,174);">Apple</text>
            </g>
            <g transform="matrix(-1.64477e-16,1.4764,-0.0492948,-1.49316e-17,107.779,-88.8255)">
                <path d="M73.365,47.1L73.365,1004.29" style="fill:none;stroke:rgb(36,17,105);stroke-width:1.41px;"/>
            </g>
            <g transform="matrix(0.895369,0,0,0.024585,73.5084,965.982)">
                <path d="M73.365,47.1L73.365,1004.29" style="fill:none;stroke:rgb(36,17,105);stroke-width:0.42px;"/>
            </g>
            <g transform="matrix(0.895369,0,0,0.024585,131.135,965.982)">
                <path d="M73.365,47.1L73.365,1004.29" style="fill:none;stroke:rgb(36,17,105);stroke-width:0.42px;"/>
            </g>
            <g transform="matrix(0.895369,0,0,0.024585,188.762,965.982)">
                <path d="M73.365,47.1L73.365,1004.29" style="fill:none;stroke:rgb(36,17,105);stroke-width:0.42px;"/>
            </g>
            <g transform="matrix(0.895369,0,0,0.024585,419.268,969.323)">
                <path d="M73.365,47.1L73.365,1004.29" style="fill:none;stroke:rgb(36,17,105);stroke-width:0.42px;"/>
            </g>
            <g transform="matrix(5.48255e-17,1.4764,-0.0149096,1.5054e-18,79.5478,576.477)">
                <path d="M73.365,47.1L73.365,1004.29" style="fill:none;stroke:rgb(36,17,105);stroke-width:0.42px;"/>
            </g>
            <g transform="matrix(1.23533,0,0,0.0321789,279.073,965.37)">
                <path d="M73.365,47.1L73.365,1004.29" style="fill:none;stroke:rgb(36,17,105);stroke-width:1.02px;"/>
            </g>
            <g transform="matrix(7.56424e-17,2.03698,-0.019515,1.97039e-18,81.9448,345.306)">
                <path d="M73.365,47.1L73.365,1004.29" style="fill:none;stroke:rgb(36,17,105);stroke-width:1.02px;"/>
            </g>
            <g transform="matrix(0.895369,0,0,0.024585,246.388,965.982)">
                <path d="M73.365,47.1L73.365,1004.29" style="fill:none;stroke:rgb(36,17,105);stroke-width:0.42px;"/>
            </g>
            <g transform="matrix(5.48255e-17,1.4764,-0.0149096,1.5054e-18,81.574,291.41)">
                <path d="M73.365,47.1L73.365,1004.29" style="fill:none;stroke:rgb(36,17,105);stroke-width:0.42px;"/>
            </g>
            <g transform="matrix(0.895369,0,0,0.024585,361.641,965.982)">
                <path d="M73.365,47.1L73.365,1004.29" style="fill:none;stroke:rgb(36,17,105);stroke-width:0.42px;"/>
            </g>
            <g transform="matrix(5.48255e-17,1.4764,-0.0149096,1.5054e-18,81.574,481.455)">
                <path d="M73.365,47.1L73.365,1004.29" style="fill:none;stroke:rgb(36,17,105);stroke-width:0.42px;"/>
            </g>
            <g transform="matrix(0.895369,0,0,0.024585,476.894,965.982)">
                <path d="M73.365,47.1L73.365,1004.29" style="fill:none;stroke:rgb(36,17,105);stroke-width:0.42px;"/>
            </g>
            <g transform="matrix(5.48255e-17,1.4764,-0.0149096,1.5054e-18,81.574,671.5)">
                <path d="M73.365,47.1L73.365,1004.29" style="fill:none;stroke:rgb(36,17,105);stroke-width:0.42px;"/>
            </g>
            <g transform="matrix(0.895369,0,0,0.024585,534.521,965.982)">
                <path d="M73.365,47.1L73.365,1004.29" style="fill:none;stroke:rgb(36,17,105);stroke-width:0.42px;"/>
            </g>
            <g transform="matrix(5.48255e-17,1.4764,-0.0149096,1.5054e-18,81.574,766.048)">
                <path d="M73.365,47.1L73.365,1004.29" style="fill:none;stroke:rgb(36,17,105);stroke-width:0.42px;"/>
            </g>
            <g transform="matrix(-0.895369,-1.80807e-16,6.03688e-18,-0.0812839,723.525,1010.9)">
                <path d="M73.365,47.1L73.365,1004.29" style="fill:none;stroke:rgb(36,17,105);stroke-width:1.41px;"/>
            </g>
            <g transform="matrix(3.73256,0,0,6.15474,-844.905,-6154.04)">
                <g transform="matrix(3.83809,0,0,3.83809,396.872,1028.62)">
                </g>
                <text x="376.595px" y="1028.62px" style="font-family:'BwQuintaPro-Bold', 'Bw Quinta Pro';font-weight:700;font-size:3.838px;fill:rgb(187,30,174);">Candy Floss</text>
            </g>
            <g transform="matrix(0.665118,0,0,1.09673,-12.4515,-328.968)">
                <circle cx="314.325" cy="751.24" r="10.395" style="fill:rgb(252,233,247);stroke:rgb(228,36,206);stroke-width:2.02px;"/>
            </g>
            <g transform="matrix(0.665118,0,0,1.09673,160.81,-47.82)">
                <circle cx="314.325" cy="751.24" r="10.395" style="fill:rgb(252,233,247);stroke:rgb(228,36,206);stroke-width:2.02px;"/>
            </g>
            <g transform="matrix(0.665118,0,0,1.09673,389.953,-621.068)">
                <circle cx="314.325" cy="751.24" r="10.395" style="fill:rgb(252,233,247);stroke:rgb(228,36,206);stroke-width:2.02px;"/>
            </g>
            <g transform="matrix(3.73256,0,-3.97201e-32,6.15474,-1361.19,-6306.47)">
                <g transform="matrix(3.35833,0,0,3.35833,379.5,1028.62)">
                </g>
                <text x="376.595px" y="1028.62px" style="font-family:'BwQuintaPro-Medium', 'Bw Quinta Pro';font-weight:500;font-size:3.358px;fill:rgb(36,16,105);">10</text>
            </g>
            <g transform="matrix(5.48255e-17,1.4764,-0.0149096,1.5054e-18,81.574,6.343)">
                <path d="M73.365,47.1L73.365,1004.29" style="fill:none;stroke:rgb(36,17,105);stroke-width:0.42px;"/>
            </g>
            <g transform="matrix(5.48255e-17,1.4764,-0.0149096,1.5054e-18,81.574,101.365)">
                <path d="M73.365,47.1L73.365,1004.29" style="fill:none;stroke:rgb(36,17,105);stroke-width:0.42px;"/>
            </g>
            <g transform="matrix(5.48255e-17,1.4764,-0.0149096,1.5054e-18,81.574,196.388)">
                <path d="M73.365,47.1L73.365,1004.29" style="fill:none;stroke:rgb(36,17,105);stroke-width:0.42px;"/>
            </g>
        </g>
    </g>
</svg>
